<?xml version="1.0" standalone="no"?>
<!DOCTYPE svg PUBLIC "-//W3C//DTD SVG 20010904//EN"
 "http://www.w3.org/TR/2001/REC-SVG-20010904/DTD/svg10.dtd">
<svg version="1.0" xmlns="http://www.w3.org/2000/svg"
 width="120px" height="120px" viewBox="0 0 1192.000000 1280.0000"
 preserveAspectRatio="xMidYMid meet">
<metadata>
Created by potrace 1.15, written by Peter Selinger 2001-2017
</metadata>
<g transform="translate(0.000000,1280.000000) scale(0.100000,-0.100000)"
fill="#000000" stroke="none">
<path d="M335 12793 c-131 -11 -202 -26 -268 -60 l-69 -34 6 -737 c8 -851 21
-2644 37 -5022 17 -2589 20 -2836 41 -2857 10 -9 20 -14 24 -11 19 19 26 1015
34 4413 8 3790 10 3982 43 4082 12 37 14 38 72 47 35 5 2265 10 5270 11 3991
1 5254 4 5400 13 252 17 531 41 550 48 24 10 18 41 -10 48 -87 22 -1149 43
-2755 56 -1097 9 -8276 11 -8375 3z"/>
<path d="M11832 12750 c-41 -9 -68 -34 -75 -66 -5 -27 22 -164 32 -164 3 0 30
37 59 82 73 114 68 166 -16 148z"/>
<path d="M11805 12437 c-6 -29 11 -228 33 -397 l7 -55 6 70 c12 131 10 390 -3
403 -21 21 -37 13 -43 -21z"/>
<path d="M2380 12440 c-1418 -9 -1994 -20 -2012 -38 -36 -36 -35 -4437 2
-7017 5 -374 12 -1317 15 -2095 3 -778 8 -1731 11 -2116 l6 -701 67 -12 c155
-27 1513 -43 6961 -81 806 -6 1836 -14 2290 -19 454 -5 1064 -6 1355 -2 l530
6 -3 465 c-3 532 -17 2806 -32 5205 -28 4577 -45 6344 -60 6359 -5 5 -117 13
-247 17 -803 26 -6396 44 -8883 29z m-690 -198 c278 -67 629 -236 765 -369
114 -110 416 -283 605 -346 90 -30 204 -41 283 -28 132 23 213 83 348 258 112
145 171 185 185 126 10 -37 -26 -141 -83 -243 -63 -111 -173 -223 -268 -272
-136 -69 -217 -86 -490 -99 -187 -8 -267 -18 -283 -34 -11 -11 49 -58 159
-126 235 -144 352 -313 458 -657 58 -190 63 -282 16 -282 -25 0 -52 -35 -58
-77 -15 -93 -102 -102 -266 -27 -195 89 -395 265 -519 454 -82 126 -137 190
-162 190 -28 0 -48 -31 -79 -128 -79 -243 -219 -414 -456 -552 -54 -33 -101
-58 -103 -56 -1 2 4 68 12 147 25 238 29 376 16 464 -6 44 -42 173 -80 286
-37 113 -73 223 -79 245 -15 55 -97 158 -181 229 -93 78 -184 187 -255 305
-63 106 -91 140 -113 140 -12 0 -14 -12 -9 -67 3 -38 9 -76 12 -85 17 -42 -28
-13 -103 68 -92 99 -123 154 -124 222 -2 64 37 173 79 222 40 46 144 100 207
107 38 5 48 2 71 -21 33 -33 40 -33 111 5 59 31 60 31 179 26 70 -3 156 -13
205 -25z m8079 -118 c51 -36 7 -208 -75 -287 -52 -51 -154 -98 -316 -147 -250
-75 -429 -100 -459 -64 -11 14 -10 20 14 40 16 13 40 26 55 29 100 21 167 45
270 95 191 95 326 189 381 266 28 39 82 84 101 84 3 0 16 -7 29 -16z m-1416
-36 c27 -55 10 -97 -72 -178 -164 -163 -565 -370 -716 -370 -33 0 -65 21 -65
42 0 23 86 89 174 134 148 76 232 137 388 280 98 89 178 135 233 131 35 -2 42
-6 58 -39z m-3367 -31 c128 -65 200 -207 224 -435 12 -111 20 -141 41 -159 8
-5 70 -13 139 -17 118 -6 332 -31 764 -90 207 -29 348 -35 370 -17 7 6 16 34
19 61 12 103 106 222 260 328 87 60 238 134 309 151 51 12 137 15 163 5 27
-11 37 -52 24 -93 -20 -61 -44 -91 -218 -275 -52 -55 -62 -70 -50 -77 9 -4 85
-22 170 -39 228 -45 353 -114 335 -184 -11 -45 -111 -80 -351 -121 -55 -10
-115 -23 -132 -31 l-33 -13 52 -113 c122 -272 146 -341 125 -366 -41 -50 -312
85 -465 232 -35 33 -81 86 -102 116 -42 62 -112 130 -157 154 -71 36 -1004
186 -1160 186 -50 0 -53 -1 -53 -26 0 -14 16 -63 35 -107 92 -212 61 -394 -95
-549 -102 -102 -105 -99 -105 92 -1 171 -6 202 -42 274 -53 104 -181 193 -338
232 -90 23 -135 14 -455 -91 -363 -118 -458 -139 -645 -139 -119 -1 -162 3
-210 18 -102 32 -175 74 -175 102 0 26 66 34 265 31 235 -2 229 -3 580 112
132 44 312 102 401 130 187 60 284 112 362 195 71 75 96 132 96 221 0 82 -25
140 -107 245 -28 36 -56 71 -61 79 -20 26 162 8 220 -22z m3523 -247 c33 -17
46 -69 46 -180 0 -211 -17 -221 -698 -435 -170 -53 -167 -54 -212 35 -32 62
-79 220 -68 230 4 4 62 24 128 45 178 55 330 117 520 213 211 106 241 115 284
92z m1811 -120 c339 -30 565 -104 703 -230 145 -133 185 -322 93 -443 -70 -91
-243 -148 -357 -117 -88 25 -269 175 -269 223 0 55 122 169 150 141 9 -9 9
-26 0 -67 -12 -50 -11 -59 9 -100 53 -109 213 -147 328 -77 112 68 122 240 23
353 -137 155 -394 218 -969 238 -270 9 -427 21 -440 35 -38 37 459 67 729 44z
m-933 -90 c36 0 24 -19 -33 -51 -53 -31 -121 -45 -143 -31 -17 12 -6 49 20 63
25 13 100 28 117 23 8 -2 25 -4 39 -4z m-8415 -137 c109 -133 187 -211 366
-370 90 -80 161 -148 158 -150 -19 -20 -278 188 -417 334 -94 99 -215 273
-190 273 6 0 43 -39 83 -87z m8344 -53 c254 -41 442 -92 543 -147 213 -115
461 -389 461 -508 0 -48 -47 -98 -86 -93 -30 3 -37 14 -53 73 -14 53 -102 200
-167 279 -129 156 -353 271 -600 306 -44 6 -176 15 -294 20 -202 7 -260 16
-274 38 -8 13 15 31 61 48 50 19 235 12 409 -16z m-679 -293 c42 -23 63 -64
63 -126 0 -145 -101 -209 -260 -166 -156 43 -490 65 -735 49 -71 -4 -114 -10
-95 -11 568 -47 835 -123 1016 -287 211 -191 243 -446 72 -573 -70 -51 -120
-18 -138 92 -6 39 -22 88 -35 110 -91 156 -452 352 -764 414 -53 11 -145 23
-206 26 -134 8 -163 16 -203 58 -39 41 -99 167 -107 229 -6 40 -4 48 13 57 46
25 479 91 822 125 85 9 171 18 190 20 19 2 103 3 185 2 122 -1 156 -5 182 -19z
m1096 -731 c91 -33 274 -190 322 -277 70 -127 35 -387 -93 -685 -45 -106 -78
-153 -119 -170 -35 -15 -35 -16 -31 -68 8 -99 130 -314 246 -432 33 -34 88
-77 123 -95 71 -39 100 -72 102 -119 2 -31 -2 -35 -53 -61 -30 -16 -98 -65
-150 -110 -52 -44 -108 -88 -124 -96 -37 -19 -90 -13 -174 22 -97 39 -187 57
-297 57 -224 0 -297 -77 -297 -310 1 -322 161 -539 332 -452 56 29 96 72 173
188 75 112 104 139 134 124 55 -30 207 -230 247 -326 30 -73 13 -134 -65 -227
-54 -63 -53 -98 10 -215 26 -50 108 -185 182 -300 75 -115 152 -237 173 -271
52 -87 150 -295 175 -373 37 -112 103 -458 105 -545 l1 -79 -50 -9 c-61 -10
-73 -20 -81 -63 -10 -56 -50 -42 -87 31 -8 17 -33 100 -57 185 -66 245 -289
903 -392 1160 -110 272 -127 310 -149 323 -40 25 -125 -34 -154 -105 -21 -53
-21 -175 1 -248 8 -30 38 -99 65 -152 59 -116 79 -188 79 -284 0 -129 -54
-249 -137 -307 -94 -65 -236 -86 -312 -47 -56 28 -122 109 -171 207 -67 135
-66 165 16 463 31 112 35 232 11 297 -22 58 -94 165 -168 248 -181 203 -267
319 -359 485 -123 223 -248 389 -435 576 -212 213 -399 346 -680 485 -410 201
-765 270 -1330 256 -742 -18 -1249 -235 -1897 -814 -370 -330 -562 -591 -830
-1128 -296 -592 -432 -1036 -479 -1563 -15 -177 -6 -686 15 -842 53 -381 145
-688 293 -984 150 -302 335 -539 628 -809 555 -512 1051 -728 1781 -778 213
-15 640 -6 739 15 210 44 661 228 836 341 256 165 592 552 747 861 69 137 146
369 196 594 121 543 86 1062 -96 1424 -201 401 -521 737 -863 908 -207 104
-346 132 -660 132 -350 0 -579 -62 -759 -207 -142 -114 -263 -313 -297 -490
-13 -68 -5 -111 42 -232 109 -281 277 -410 468 -361 138 35 266 138 327 261
33 66 37 82 37 153 0 150 -78 261 -237 337 l-90 43 38 7 c67 13 166 -2 233
-35 136 -67 259 -284 271 -476 4 -76 2 -86 -23 -131 -53 -93 -17 -105 135 -43
54 21 129 44 166 51 134 23 319 -9 472 -81 182 -86 299 -196 383 -360 34 -64
34 -66 33 -195 -2 -162 -29 -324 -85 -498 -42 -130 -90 -219 -122 -225 -24 -5
-51 60 -82 195 -44 201 -82 271 -225 415 -141 143 -237 178 -491 179 -191 1
-244 -37 -130 -93 82 -39 84 -43 77 -183 -6 -132 -30 -247 -76 -361 -52 -130
-128 -229 -161 -208 -9 5 -10 41 -6 137 11 229 -30 398 -125 519 -52 67 -137
71 -209 11 -96 -81 -102 -256 -18 -536 96 -320 129 -565 94 -701 -41 -157
-287 -536 -432 -665 -119 -106 -300 -169 -455 -157 -191 15 -367 107 -535 278
-109 111 -117 133 -121 313 -4 165 6 236 43 300 48 82 206 221 281 245 32 11
39 10 63 -7 50 -38 39 -129 -28 -238 -55 -89 -63 -112 -68 -201 -10 -155 37
-240 169 -302 104 -50 159 -65 248 -69 80 -4 88 -2 137 27 62 35 137 123 208
241 49 82 50 84 49 163 0 64 -7 101 -33 176 -45 129 -120 271 -192 361 -63 77
-119 175 -119 207 0 36 -104 183 -282 397 -101 121 -193 233 -204 248 l-22 27
-188 -188 c-244 -243 -293 -269 -549 -291 -146 -13 -293 10 -282 43 2 6 36 29
76 53 103 61 174 118 267 215 102 106 175 209 227 318 36 75 41 95 45 179 l5
94 -104 -55 c-158 -84 -235 -110 -355 -116 -86 -4 -112 -1 -169 17 -107 35
-197 106 -182 145 9 22 57 44 167 77 193 58 336 141 480 278 l85 80 -35 32
c-118 105 -160 152 -166 185 -11 62 32 186 88 249 57 65 143 69 331 14 56 -16
114 -29 128 -29 38 0 77 49 143 177 31 59 84 146 120 193 195 259 549 591 836
786 127 85 180 114 293 155 45 17 109 45 142 64 85 47 158 59 328 52 223 -8
440 -55 762 -162 411 -137 738 -307 955 -497 112 -98 544 -544 613 -633 89
-115 143 -206 222 -370 41 -85 98 -192 128 -238 64 -100 80 -137 117 -287 30
-120 95 -439 106 -522 6 -41 4 -48 -17 -61 -14 -8 -59 -17 -105 -20 -49 -3
-99 -13 -125 -24 -62 -28 -137 -99 -198 -187 -70 -101 -81 -130 -69 -175 26
-95 195 -351 288 -435 22 -20 54 -39 70 -42 67 -14 84 -83 52 -210 -42 -167
-138 -328 -312 -524 -85 -96 -120 -144 -150 -208 -46 -95 -130 -189 -305 -339
-354 -305 -650 -486 -1125 -686 -776 -327 -1400 -465 -1943 -429 -440 30
-1071 157 -1447 292 -252 90 -622 261 -826 381 -576 338 -1022 812 -1471 1564
-302 505 -563 1103 -612 1400 -9 55 -31 305 -27 311 1 1 87 7 191 13 257 15
335 35 415 107 54 49 87 115 110 222 26 116 26 233 0 290 -24 54 -122 152
-180 182 -25 13 -76 29 -115 36 -106 19 -179 50 -216 91 l-32 37 7 85 c10 138
41 255 95 366 27 55 62 129 76 165 94 226 357 695 592 1054 387 591 709 876
1453 1283 691 378 1099 495 1865 533 995 49 1560 -58 2605 -493 339 -141 553
-187 872 -188 124 0 155 3 190 19 59 26 155 108 215 183 105 133 137 235 131
424 -4 139 -21 182 -93 234 -92 66 -135 127 -135 193 0 53 42 129 103 186 92
86 164 108 250 78z m-7206 -817 c-49 -92 -168 -239 -338 -415 -92 -94 -202
-214 -245 -265 -192 -231 -305 -463 -304 -624 1 -111 37 -175 143 -253 l71
-52 -90 0 c-72 0 -98 5 -139 24 -160 74 -221 303 -150 571 19 71 82 199 130
264 93 128 778 736 910 809 35 19 40 -4 12 -59z m8114 24 c131 -65 265 -266
349 -523 83 -254 75 -409 -31 -630 -45 -95 -73 -142 -205 -350 -264 -417 -307
-637 -234 -1210 33 -258 38 -364 18 -358 -13 5 -97 220 -124 318 -28 106 -44
367 -51 830 l-6 455 120 230 c226 434 238 470 230 705 -9 234 -35 334 -118
446 -80 109 -61 143 52 87z m-9429 -1344 c9 -11 22 -45 28 -76 11 -52 8 -81
-39 -362 -117 -706 -151 -1070 -120 -1310 11 -95 31 -151 52 -151 17 0 20 6
56 110 20 59 31 76 48 78 59 9 69 -110 28 -348 -39 -226 -55 -374 -55 -505 0
-242 -32 -365 -210 -807 l-108 -268 47 -118 c229 -563 383 -856 525 -997 34
-34 86 -75 116 -92 68 -38 98 -69 82 -85 -20 -20 -147 24 -334 118 -59 30
-110 54 -113 54 -3 0 -5 -35 -5 -78 0 -68 -4 -87 -31 -140 -30 -62 -79 -122
-97 -122 -15 0 -20 37 -27 180 -13 259 -50 392 -196 706 -107 231 -161 378
-188 511 -47 238 -38 383 49 733 114 457 120 579 50 992 -65 383 -57 817 26
1313 14 83 31 179 39 214 44 187 178 411 277 460 47 23 74 20 100 -10z m9808
-421 c29 -47 50 -122 56 -203 5 -59 2 -80 -19 -136 -50 -131 -52 -165 -52
-879 -1 -686 -3 -732 -45 -934 -47 -229 -123 -438 -287 -796 -104 -224 -143
-318 -143 -339 0 -9 -11 -38 -24 -66 -88 -188 -387 -396 -683 -475 -99 -27
-237 -38 -248 -20 -13 21 20 38 153 80 192 61 317 141 439 283 155 179 178
309 96 542 -51 146 -127 277 -253 440 -68 87 -104 150 -95 165 8 13 59 2 122
-26 82 -35 184 -106 252 -173 47 -47 69 -61 91 -61 33 0 50 23 50 65 0 58 56
121 138 156 82 35 104 24 139 -73 9 -26 21 -48 27 -48 12 0 2 297 -26 725 -23
366 -26 727 -9 910 41 418 129 759 221 856 46 48 73 50 100 7z m57 -3373 c74
-39 119 -80 150 -133 92 -156 -56 -382 -250 -382 -32 0 -72 6 -91 14 -50 21
-104 74 -134 130 -23 44 -26 63 -27 146 0 105 16 149 72 202 69 66 184 76 280
23z m-655 -495 c89 -17 174 -56 294 -136 201 -133 334 -278 334 -366 0 -32 -5
-40 -31 -54 -78 -40 -296 38 -539 193 -187 119 -374 228 -435 256 -103 45 -98
77 16 101 77 17 283 20 361 6z m-9084 -1001 c120 -13 153 -27 190 -78 60 -82
172 -430 172 -532 0 -26 -12 -89 -26 -139 -43 -151 -24 -250 48 -250 23 0 41
12 81 56 103 112 172 175 256 233 104 71 257 153 328 176 51 17 54 17 98 -5
93 -45 103 -93 59 -265 -51 -202 -171 -433 -274 -530 -23 -22 -55 -58 -71 -79
-34 -46 -26 -66 27 -66 44 0 74 12 128 53 60 47 144 61 351 60 186 -1 275 -19
384 -79 128 -70 281 -194 281 -227 0 -26 -61 -37 -270 -48 -412 -21 -572 -67
-788 -227 -92 -68 -261 -172 -367 -225 -206 -103 -559 -179 -757 -164 -92 7
-155 30 -364 133 -181 88 -206 112 -223 206 -30 176 6 469 74 606 41 80 142
216 269 361 171 195 250 324 286 467 25 95 26 257 5 429 -18 142 -18 145 -5
145 6 0 54 -5 108 -11z m10020 -21 c17 -17 15 -74 -3 -92 -54 -53 -119 -9 -83
57 23 43 62 59 86 35z m-720 -101 c15 -32 31 -293 32 -527 1 -234 28 -350 91
-389 12 -7 46 -21 74 -31 29 -10 72 -30 96 -45 129 -81 355 -310 404 -410 89
-180 32 -462 -136 -675 -60 -76 -103 -92 -264 -98 -253 -9 -431 28 -566 116
-41 27 -128 100 -195 163 -136 128 -200 171 -292 194 -78 20 -148 8 -216 -36
-104 -69 -193 -249 -211 -429 l-8 -75 -45 95 c-113 240 -108 441 13 625 71
107 155 179 429 367 25 17 -12 18 -180 8 -333 -21 -525 -59 -620 -123 -125
-83 -123 -182 7 -352 71 -94 98 -147 99 -194 0 -48 -24 -71 -75 -71 -68 0
-154 51 -261 152 -52 50 -100 88 -107 85 -7 -2 -79 -55 -161 -118 -332 -251
-431 -291 -721 -290 -162 0 -287 12 -690 66 -412 55 -654 84 -818 95 -245 17
-355 38 -316 60 43 24 456 44 1224 60 676 14 752 24 964 125 193 93 335 199
464 346 155 178 330 275 564 315 164 28 411 7 476 -40 72 -52 67 -50 84 -33
15 15 15 21 0 82 -9 36 -39 116 -66 178 -85 192 -130 349 -131 452 0 56 20 95
50 95 11 0 56 -25 101 -56 146 -99 280 -213 431 -365 81 -82 152 -149 157
-149 30 0 54 90 76 282 21 193 50 336 86 430 51 131 124 185 157 115z m-7357
-957 c144 -44 284 -164 473 -403 109 -139 143 -167 125 -105 -13 45 -11 92 3
106 35 35 108 2 243 -108 223 -182 486 -295 925 -395 217 -49 381 -94 446
-121 47 -20 94 -52 94 -65 0 -43 -433 -86 -690 -69 -260 18 -426 58 -605 145
-154 75 -227 138 -317 276 l-73 111 -5 -144 c-7 -192 -14 -204 -163 -252 -151
-49 -308 -56 -291 -12 3 8 48 42 99 76 103 68 180 143 191 185 27 109 -82 316
-253 476 -213 200 -338 233 -678 179 -33 -6 -80 -10 -105 -10 -43 1 -44 1 -25
16 50 40 236 113 340 133 70 14 188 6 266 -19z"/>
<path d="M1177 12053 c-12 -11 -8 -87 9 -174 27 -143 49 -174 90 -128 35 39
13 155 -52 267 -24 41 -34 49 -47 35z"/>
<path d="M1831 11873 c-129 -64 -218 -164 -236 -264 -16 -90 54 -193 172 -251
55 -27 76 -32 141 -32 65 -1 86 4 134 27 102 50 165 152 175 281 7 89 -7 134
-55 188 -53 59 -118 88 -194 88 -53 0 -75 -6 -137 -37z m119 -54 c56 -25 77
-44 101 -91 36 -70 15 -156 -51 -211 -65 -55 -139 -54 -218 3 -65 46 -78 72
-62 123 17 59 56 132 82 158 46 43 83 48 148 18z"/>
<path d="M1175 1627 c-109 -37 -192 -104 -235 -192 -20 -40 -24 -66 -25 -130
0 -69 4 -89 32 -147 66 -139 155 -194 318 -192 75 0 100 5 147 27 119 54 199
169 220 316 16 107 3 148 -67 216 -81 78 -150 107 -260 111 -57 3 -105 -1
-130 -9z m179 -101 c46 -19 114 -82 137 -127 48 -95 1 -216 -103 -270 -169
-87 -358 -4 -358 156 0 92 74 202 160 239 44 19 121 20 164 2z"/>
<path d="M10431 1514 c-47 -14 -86 -45 -94 -75 -12 -46 69 -26 132 31 51 47
36 66 -38 44z"/>
<path d="M10580 1515 c0 -3 24 -16 54 -29 70 -31 131 -87 163 -149 31 -61 45
-52 51 33 4 57 3 61 -30 94 -19 19 -52 39 -73 45 -40 11 -165 15 -165 6z"/>
<path d="M10770 1154 c-96 -98 -124 -108 -276 -99 -83 5 -124 4 -124 -3 0 -31
151 -101 217 -102 121 0 285 146 271 242 -2 12 -8 23 -13 25 -6 2 -40 -27 -75
-63z"/>
<path d="M11846 11303 c-43 -406 -46 -2872 -5 -3968 29 -774 44 -127 43 1955
0 1566 -6 2080 -24 2080 -4 0 -10 -30 -14 -67z"/>
<path d="M11855 6940 c-14 -23 -24 -206 -25 -445 0 -367 23 -663 55 -724 l13
-25 5 30 c23 119 11 850 -18 1058 -15 113 -18 125 -30 106z"/>
<path d="M11885 5515 c-12 -105 -13 -1762 -1 -1930 9 -121 10 -127 20 -85 13
58 12 1939 -1 2030 l-9 65 -9 -80z"/>
<path d="M106 3996 c-20 -81 -28 -575 -33 -2102 l-5 -1671 67 -27 c135 -54
270 -71 339 -42 82 34 51 65 -76 76 -53 4 -105 13 -116 19 -35 18 -71 70 -87
123 -33 113 -37 253 -30 1248 8 1223 -11 2254 -44 2378 l-8 27 -7 -29z"/>
<path d="M11887 3120 c-12 -414 -28 -2350 -21 -2542 6 -164 13 -212 29 -196
16 15 27 1119 20 1973 -7 972 -16 1192 -28 765z"/>
<path d="M1645 229 c-683 -9 -1045 -26 -1045 -49 0 -31 704 -43 2285 -37 1331
5 1998 17 2018 36 45 43 -1741 71 -3258 50z"/>
<path d="M5270 219 c-90 -11 -140 -26 -140 -44 0 -20 25 -26 163 -37 196 -15
477 10 477 43 0 39 -293 62 -500 38z"/>
<path d="M6248 183 c-21 -2 -38 -8 -38 -12 0 -20 285 -37 840 -51 245 -6 549
-15 675 -19 127 -4 241 -5 254 -1 30 8 38 25 15 34 -31 12 -350 35 -626 46
-260 9 -1037 11 -1120 3z"/>
<path d="M8165 152 c-64 -11 -31 -19 125 -31 385 -29 943 -47 2575 -81 275 -6
565 -16 645 -22 264 -21 405 -9 405 32 0 47 -108 58 -710 70 -269 6 -699 15
-955 21 -575 12 -2031 20 -2085 11z"/>
</g>
</svg>
